<svg width="540" height="900" viewBox="0 0 540 900" fill="none" xmlns="http://www.w3.org/2000/svg">
  <rect width="540" height="900" fill="#09121C"/>
  <rect width="540" height="900" fill="url(#grid)" opacity="0.24"/>
  <rect x="34" y="42" width="126" height="22" rx="8" fill="#122333"/>
  <rect x="34" y="92" width="292" height="102" rx="16" fill="#ECF6FF"/>
  <rect x="34" y="214" width="244" height="18" rx="9" fill="#93CFFF"/>
  <rect x="34" y="242" width="210" height="18" rx="9" fill="#5AAFE9"/>
  <rect x="34" y="292" width="150" height="42" rx="12" fill="#14344A"/>
  <rect x="198" y="292" width="136" height="42" rx="12" stroke="#3BA7FF" stroke-width="2"/>
  <rect x="34" y="372" width="150" height="224" rx="24" fill="#112130"/>
  <rect x="202" y="372" width="304" height="224" rx="24" fill="#D9ECF9"/>
  <rect x="34" y="634" width="228" height="108" rx="22" fill="#112130"/>
  <rect x="278" y="634" width="228" height="108" rx="22" fill="#112130"/>
  <rect x="34" y="770" width="472" height="96" rx="24" fill="#EEF6FF"/>
  <defs>
    <pattern id="grid" width="36" height="36" patternUnits="userSpaceOnUse">
      <path d="M36 0H0V36" stroke="#7CC4FF" stroke-opacity="0.45"/>
    </pattern>
  </defs>
</svg>
