<svg xmlns="http://www.w3.org/2000/svg" width="320" height="220" viewBox="0 0 320 220" fill="none">
  <rect width="320" height="220" rx="8" fill="#f6ecee"/>
  <rect x="16" y="18" width="122" height="184" rx="6" fill="#fff9fa"/>
  <rect x="18" y="20" width="118" height="180" rx="5" stroke="#ecd6dc"/>
  <rect x="28" y="36" width="52" height="6" rx="3" fill="#8f5e6f" opacity="0.7"/>
  <rect x="28" y="56" width="92" height="22" rx="5" fill="#5a3343"/>
  <rect x="28" y="86" width="88" height="5" rx="2.5" fill="#9b7483" opacity="0.8"/>
  <rect x="28" y="96" width="82" height="5" rx="2.5" fill="#9b7483" opacity="0.65"/>
  <rect x="28" y="106" width="78" height="5" rx="2.5" fill="#9b7483" opacity="0.5"/>
  <rect x="28" y="124" width="56" height="18" rx="4" fill="#c97a96"/>
  <rect x="28" y="156" width="40" height="4" rx="2" fill="#5a3343"/>
  <rect x="28" y="168" width="52" height="4" rx="2" fill="#9b7483" opacity="0.7"/>
  <rect x="74" y="156" width="32" height="4" rx="2" fill="#5a3343"/>
  <rect x="74" y="168" width="44" height="4" rx="2" fill="#9b7483" opacity="0.7"/>
  <rect x="144" y="18" width="160" height="184" rx="6" fill="#f8fbff"/>
  <rect x="146" y="20" width="156" height="180" rx="5" stroke="#d7e7f2"/>
  <path d="M160 44H292" stroke="#d7dde5" stroke-width="2"/>
  <path d="M148 72L198 40L238 78L286 46" stroke="#9ec3dd" stroke-width="2.5" opacity="0.8"/>
  <path d="M156 104L212 58L260 116L300 78" stroke="#c1d7a6" stroke-width="20" opacity="0.35"/>
  <path d="M150 132L212 116L302 146" stroke="#a7d0f0" stroke-width="3" opacity="0.85"/>
  <path d="M160 164L196 130L236 150L286 118" stroke="#d6d9df" stroke-width="2.5" opacity="0.9"/>
  <circle cx="242" cy="118" r="11" fill="#df584e"/>
  <path d="M242 109C245.314 109 248 111.686 248 115C248 119.5 242 126 242 126C242 126 236 119.5 236 115C236 111.686 238.686 109 242 109Z" fill="#df584e"/>
  <rect x="152" y="28" width="72" height="30" rx="4" fill="white" stroke="#e5e7eb"/>
  <rect x="158" y="34" width="42" height="5" rx="2.5" fill="#5a3343"/>
  <rect x="158" y="44" width="50" height="4" rx="2" fill="#7a8390" opacity="0.8"/>
  <rect x="158" y="51" width="26" height="4" rx="2" fill="#7a8390" opacity="0.6"/>
</svg>
