<svg width="1200" height="800" viewBox="0 0 1200 800" xmlns="http://www.w3.org/2000/svg" role="img" aria-labelledby="title desc">
  <title id="title">Schedulaa dashboard preview</title>
  <desc id="desc">Abstract cards representing scheduling, payroll, and analytics modules.</desc>
  <defs>
    <linearGradient id="bgGradient" x1="0%" y1="0%" x2="100%" y2="100%">
      <stop offset="0%" stop-color="#0ea5e9" stop-opacity="0.18" />
      <stop offset="40%" stop-color="#38bdf8" stop-opacity="0.12" />
      <stop offset="100%" stop-color="#34d399" stop-opacity="0.18" />
    </linearGradient>
    <linearGradient id="cardGradient" x1="0%" y1="0%" x2="100%" y2="100%">
      <stop offset="0%" stop-color="#ffffff" stop-opacity="0.92" />
      <stop offset="100%" stop-color="#f0f9ff" stop-opacity="0.86" />
    </linearGradient>
    <linearGradient id="accentGradient" x1="0%" y1="0%" x2="100%" y2="0%">
      <stop offset="0%" stop-color="#6366f1" />
      <stop offset="100%" stop-color="#ec4899" />
    </linearGradient>
  </defs>
  <rect width="1200" height="800" rx="48" fill="url(#bgGradient)" />
  <g transform="translate(120 120)">
    <rect x="0" y="0" width="680" height="440" rx="32" fill="url(#cardGradient)" opacity="0.95" />
    <rect x="520" y="-40" width="240" height="160" rx="24" fill="#0f172a" opacity="0.14" />
    <rect x="560" y="360" width="260" height="180" rx="28" fill="#0f172a" opacity="0.12" />
    <rect x="40" y="40" width="600" height="72" rx="20" fill="#ffffff" opacity="0.94" />
    <rect x="40" y="136" width="360" height="88" rx="18" fill="#ffffff" opacity="0.9" />
    <rect x="424" y="136" width="216" height="88" rx="18" fill="#0ea5e9" opacity="0.2" />
    <rect x="40" y="244" width="260" height="136" rx="18" fill="#ffffff" opacity="0.9" />
    <rect x="320" y="244" width="320" height="136" rx="18" fill="#ffffff" opacity="0.9" />
    <rect x="40" y="404" width="600" height="32" rx="16" fill="#0ea5e9" opacity="0.18" />
    <rect x="40" y="456" width="420" height="32" rx="16" fill="#34d399" opacity="0.18" />
    <rect x="40" y="508" width="260" height="32" rx="16" fill="#6366f1" opacity="0.18" />
    <circle cx="620" cy="404" r="32" fill="#34d399" opacity="0.6" />
    <rect x="720" y="60" width="200" height="260" rx="26" fill="url(#cardGradient)" opacity="0.92" />
    <rect x="760" y="100" width="120" height="20" rx="10" fill="#0ea5e9" opacity="0.6" />
    <rect x="760" y="140" width="160" height="20" rx="10" fill="#1f2937" opacity="0.12" />
    <rect x="760" y="180" width="160" height="20" rx="10" fill="#1f2937" opacity="0.12" />
    <rect x="760" y="220" width="160" height="20" rx="10" fill="#1f2937" opacity="0.12" />
    <rect x="760" y="260" width="160" height="20" rx="10" fill="url(#accentGradient)" opacity="0.75" />
  </g>
</svg>
